<mxfile host="app.diagrams.net" agent="Mozilla/5.0 (Windows NT 10.0; Win64; x64) AppleWebKit/537.36 (KHTML, like Gecko) Chrome/134.0.0.0 Safari/537.36" version="26.1.1">
  <diagram name="PÃ¡gina-1" id="msNFu-n5ebldyBh3x5K-">
    <mxGraphModel dx="1214" dy="604" grid="1" gridSize="10" guides="1" tooltips="1" connect="1" arrows="1" fold="1" page="1" pageScale="1" pageWidth="827" pageHeight="1169" math="0" shadow="0">
      <root>
        <mxCell id="0" />
        <mxCell id="1" parent="0" />
        <mxCell id="O_ddbvaSnd8fILVGqLnH-24" style="edgeStyle=orthogonalEdgeStyle;rounded=0;orthogonalLoop=1;jettySize=auto;html=1;exitX=0;exitY=0.5;exitDx=0;exitDy=0;entryX=1;entryY=0.5;entryDx=0;entryDy=0;" edge="1" parent="1" source="O_ddbvaSnd8fILVGqLnH-1" target="O_ddbvaSnd8fILVGqLnH-10">
          <mxGeometry relative="1" as="geometry" />
        </mxCell>
        <mxCell id="O_ddbvaSnd8fILVGqLnH-25" style="edgeStyle=orthogonalEdgeStyle;rounded=0;orthogonalLoop=1;jettySize=auto;html=1;exitX=0;exitY=0.5;exitDx=0;exitDy=0;entryX=1;entryY=0.5;entryDx=0;entryDy=0;" edge="1" parent="1" source="O_ddbvaSnd8fILVGqLnH-1" target="O_ddbvaSnd8fILVGqLnH-11">
          <mxGeometry relative="1" as="geometry" />
        </mxCell>
        <mxCell id="O_ddbvaSnd8fILVGqLnH-26" style="edgeStyle=orthogonalEdgeStyle;rounded=0;orthogonalLoop=1;jettySize=auto;html=1;exitX=1;exitY=0.5;exitDx=0;exitDy=0;entryX=0;entryY=0.5;entryDx=0;entryDy=0;" edge="1" parent="1" source="O_ddbvaSnd8fILVGqLnH-1" target="O_ddbvaSnd8fILVGqLnH-2">
          <mxGeometry relative="1" as="geometry" />
        </mxCell>
        <mxCell id="O_ddbvaSnd8fILVGqLnH-27" value="1:N" style="edgeLabel;html=1;align=center;verticalAlign=middle;resizable=0;points=[];" vertex="1" connectable="0" parent="O_ddbvaSnd8fILVGqLnH-26">
          <mxGeometry x="-0.0934" y="-4" relative="1" as="geometry">
            <mxPoint as="offset" />
          </mxGeometry>
        </mxCell>
        <mxCell id="O_ddbvaSnd8fILVGqLnH-1" value="Professor" style="rounded=0;whiteSpace=wrap;html=1;" vertex="1" parent="1">
          <mxGeometry x="230" y="220" width="120" height="60" as="geometry" />
        </mxCell>
        <mxCell id="O_ddbvaSnd8fILVGqLnH-22" style="edgeStyle=orthogonalEdgeStyle;rounded=0;orthogonalLoop=1;jettySize=auto;html=1;exitX=1;exitY=0.5;exitDx=0;exitDy=0;entryX=0;entryY=0.5;entryDx=0;entryDy=0;" edge="1" parent="1" source="O_ddbvaSnd8fILVGqLnH-2" target="O_ddbvaSnd8fILVGqLnH-16">
          <mxGeometry relative="1" as="geometry" />
        </mxCell>
        <mxCell id="O_ddbvaSnd8fILVGqLnH-23" style="edgeStyle=orthogonalEdgeStyle;rounded=0;orthogonalLoop=1;jettySize=auto;html=1;exitX=1;exitY=0.5;exitDx=0;exitDy=0;entryX=0;entryY=0.5;entryDx=0;entryDy=0;" edge="1" parent="1" source="O_ddbvaSnd8fILVGqLnH-2" target="O_ddbvaSnd8fILVGqLnH-17">
          <mxGeometry relative="1" as="geometry" />
        </mxCell>
        <mxCell id="O_ddbvaSnd8fILVGqLnH-2" value="Disciplina" style="rounded=0;whiteSpace=wrap;html=1;" vertex="1" parent="1">
          <mxGeometry x="460" y="220" width="120" height="60" as="geometry" />
        </mxCell>
        <mxCell id="O_ddbvaSnd8fILVGqLnH-10" value="idProfessor_pk" style="ellipse;whiteSpace=wrap;html=1;" vertex="1" parent="1">
          <mxGeometry x="80" y="190" width="100" height="50" as="geometry" />
        </mxCell>
        <mxCell id="O_ddbvaSnd8fILVGqLnH-11" value="idDisciplina_fk" style="ellipse;whiteSpace=wrap;html=1;" vertex="1" parent="1">
          <mxGeometry x="80" y="260" width="100" height="50" as="geometry" />
        </mxCell>
        <mxCell id="O_ddbvaSnd8fILVGqLnH-16" value="idDisciplina_pk" style="ellipse;whiteSpace=wrap;html=1;" vertex="1" parent="1">
          <mxGeometry x="630" y="195" width="100" height="50" as="geometry" />
        </mxCell>
        <mxCell id="O_ddbvaSnd8fILVGqLnH-17" value="idProfessor_fk" style="ellipse;whiteSpace=wrap;html=1;" vertex="1" parent="1">
          <mxGeometry x="630" y="255" width="100" height="50" as="geometry" />
        </mxCell>
      </root>
    </mxGraphModel>
  </diagram>
</mxfile>
